# xmcd CD database file
#
# Track frame offsets:
#	150
#	19567
#	37012
#	61062
#	80100
#	100162
#	121212
#	143175
#	163070
#	185925
#
# Disc length: 2735 seconds
#
# Revision: 0
# Processed by: cddbd v1.5PL3 Copyright (c) Steve Scherf et al.
# Submitted via: CDex 1.51
#
DISCID=870aad0a
DTITLE=長沢ゆりか - Rumour
DYEAR=1997
DGENRE=seiyu(J)
TTITLE0=強いつばさで
TTITLE1=蜃気楼
TTITLE2=エル･ニール
TTITLE3=さんざんな恋しても
TTITLE4=会いたくなる
TTITLE5=LOVE LOVE
TTITLE6=愛ってなんだろ
TTITLE7=Moon
TTITLE8=ひとつひとつ
TTITLE9=愛が永遠を止めてゆく
EXTD=YEAR: 1997.03.05
EXTT0=
EXTT1=
EXTT2=
EXTT3=
EXTT4=
EXTT5=
EXTT6=
EXTT7=
EXTT8=
EXTT9=
PLAYORDER=
